<svg xmlns="http://www.w3.org/2000/svg" xmlns:xlink="http://www.w3.org/1999/xlink" viewBox="0 0 826.5 156.53">
  <defs>
    <style>
      .cls-1 {
        fill: #272426;
      }

      .cls-2 {
        fill: #fff;
      }

      .cls-3 {
        fill: #c844ff;
      }
    </style>
  </defs>
  <title>Asset 4</title>
  <g id="Layer_2" data-name="Layer 2">
    <g id="Logo_dark_hor">
      <rect class="cls-1" width="826.5" height="156.53"/>
      <image width="224" height="71" transform="translate(71.62 25.84) scale(1.48)" xlink:href="roku.png"/>
      <g id="FBK_dark">
        <g>
          <path class="cls-2" d="M486.17,67v14.7h35.77v21.8H486.17V131H457.26V45.22H527V67Z"/>
          <path class="cls-2" d="M620.69,107.33c0,15-12.62,23.65-36.27,23.65H536.15V45.22H582c23.65,0,34.67,9.43,34.67,22.42,0,8-4,14.58-11.88,18.5C614.81,89.81,620.69,97.16,620.69,107.33Zm-56.11-41.9V78.17h13.47c6.5,0,9.44-2.2,9.44-6.37s-2.94-6.37-9.44-6.37ZM591.53,104c0-4.41-3.19-6.73-9.56-6.73H564.58v13.47H582C588.34,110.76,591.53,108.44,591.53,104Z"/>
          <path class="cls-2" d="M665.77,102.55l-6.5,7.23V131H630.85V45.22h28.42V76.34l28.18-31.12h31.49L684.64,83l36,48H687.21Z"/>
        </g>
        <polygon class="cls-3" points="733.25 44.99 764.97 44.99 730.77 82.92 766.84 130.81 733.25 130.81 697.81 83.54 733.25 44.99"/>
      </g>
    </g>
  </g>
</svg>
