<svg xmlns="http://www.w3.org/2000/svg" width="38" height="39" viewBox="0 0 38 39">
  <g id="ballet" transform="translate(-5 -4)">
    <path id="Path_221" data-name="Path 221" d="M32,5c7.7,0,10,10.6,10,19,0,8.1-3.1,15-8,15s-6-4.4-6-8c0-3.8,1-7.8,1-11,0-4.8-3-6-3-9A5.823,5.823,0,0,1,32,5Z" fill="#1565c0"/>
    <path id="Path_222" data-name="Path 222" d="M31,16.9,29.3,18c4,5.8,12.1,7.8,12.4,7.9l.5-1.9c-.1,0-7.7-1.9-11.2-7.1Z" fill="#e39f00"/>
    <path id="Path_223" data-name="Path 223" d="M41.7,16.3a1.012,1.012,0,0,0-1.4.4c0,.1-3.9,7.3-10.7,8.3a.991.991,0,0,0-.8,1.1.974.974,0,0,0,1,.8H30c7.7-1.2,11.9-9.1,12.1-9.4a.918.918,0,0,0-.4-1.2Z" fill="#ffc107"/>
    <path id="Path_224" data-name="Path 224" d="M32,4a6.881,6.881,0,0,0-7,7c0,3,3,5.2,3,9,0,4.8-1,7.3-1,11,0,6.3,2.6,9,7,9,5.8,0,9-7.8,9-16C43,14.3,40.1,4,32,4Zm9,19.1C40.9,28,38.9,30,36.2,30c-6.9,0-4.2-6.8-4.2-8.9,0-5.9-3-8.6-3-11.5A3.591,3.591,0,0,1,32.9,6C40,7,40.9,18.9,41,23.1Z" fill="#90caf9"/>
    <path id="Path_225" data-name="Path 225" d="M22,14c0,3-3,4.2-3,9,0,3.2,1,7.2,1,11,0,3.6-1.1,8-6,8S6,35.1,6,27C6,18.6,8.3,8,16,8A5.823,5.823,0,0,1,22,14Z" fill="#1565c0"/>
    <path id="Path_226" data-name="Path 226" d="M17,19.9,18.7,21c-4,5.8-12.1,7.8-12.4,7.9L5.8,27C5.9,27,13.5,25.1,17,19.9Z" fill="#e39f00"/>
    <path id="Path_227" data-name="Path 227" d="M6.3,19.3a1.012,1.012,0,0,1,1.4.4c0,.1,3.9,7.3,10.7,8.3a.991.991,0,0,1,.8,1.1.974.974,0,0,1-1,.8H18c-7.7-1-11.9-8.9-12.1-9.2a1.107,1.107,0,0,1,.4-1.4Z" fill="#ffc107"/>
    <path id="Path_228" data-name="Path 228" d="M5,27c0,8.2,3.2,16,9,16,4.4,0,7-2.8,7-9,0-3.6-1-6.2-1-11,0-3.8,3-6,3-9a6.881,6.881,0,0,0-7-7C7.9,7,5,17.3,5,27ZM15.1,9.1A3.652,3.652,0,0,1,19,12.7c0,2.9-3,5.6-3,11.5,0,2,2.7,8.9-4.2,8.9-2.6,0-4.7-2-4.8-6.9C7.1,21.9,8,10,15.1,9.1Z" fill="#90caf9"/>
  </g>
</svg>
