<svg xmlns="http://www.w3.org/2000/svg" width="30" height="40.001"><g data-name="Iron Man"><path data-name="Path 123" d="M29.1 13.802c-.2-1.5-.5-7.8-2-9.8a20.4 20.4 0 0 0-12-4 20.4 20.4 0 0 0-12 4c-1.4 2-1.9 8.3-2 9.8l.5 9.2v.2s1.9 8.3 2.7 9.7a19.626 19.626 0 0 0 5.8 6.5c.9.5 3.3.6 5 .6a15.72 15.72 0 0 0 5-.6c2.2-1.1 4.8-4.6 5.8-6.5.8-1.4 2.7-9.7 2.7-9.7v-.2z" fill="#b71c1c"/><path data-name="Path 124" d="M25.9 24.002c-.5.6-3.4 6.2-3.4 6.2a10.381 10.381 0 0 0 0 4.2c.5 2-.5 2.2-.5 2.2l-1.2 1.4-2.2-.9h-6.7l-2.2.9-1.2-1.4s-.9-.2-.5-2.2a10.381 10.381 0 0 0 0-4.2s-3.4-5.5-3.9-6.2a8.708 8.708 0 0 1-.8-2.8l1.2-3.5-.3-10.6a9.3 9.3 0 0 1 2.2-2.3 19.885 19.885 0 0 1 4.2-1.7l1.1 7.8s.3 1.7.3 1.8c0 .2 1.1.5 1.1.5h4.1s1.1-.3 1.1-.5.3-1.8.3-1.8l1.1-7.8a15.5 15.5 0 0 1 4.2 1.7c.9.9 2 2.3 2 2.3l-.3 10.5 1.2 3.5c-.1.1-.4 2.3-.9 2.9z" fill="#ffc107"/><path data-name="Path 125" d="M25.3 22.002l-.6.3a22.109 22.109 0 0 1-2.4 1.3 1.691 1.691 0 0 1-1.2.4l-3.1.2a1.306 1.306 0 0 1-1.2-.6 10.587 10.587 0 0 1-.7-1 1.8 1.8 0 0 0-1.1-.3 1.431 1.431 0 0 0-1.1.3c-.4.6-.6.8-.7 1a1.563 1.563 0 0 1-1.2.6l-3.2-.2a2.393 2.393 0 0 1-1.3-.4c-.4-.2-1.1-.6-2.3-1.3l-.7-.4a.675.675 0 0 1-.4-.6 1.078 1.078 0 0 1 .3-.9l1.3-1a1.208 1.208 0 0 1 1.1-.1 6.373 6.373 0 0 0 .7.2 21.9 21.9 0 0 0 5.5 1.4h3.7a20.805 20.805 0 0 0 5.5-1.4 2.544 2.544 0 0 1 .7-.2 1.27 1.27 0 0 1 1.1.1l1.3 1a.956.956 0 0 1 .3.9c.2.3 0 .5-.3.7z" fill="#e8b006"/><g data-name="Group 12" fill="#81d4fa"><path data-name="Path 126" d="M16.6 22.202s.6.9.8 1.1a.778.778 0 0 0 .6.3l3.1-.2a1.481 1.481 0 0 0 .9-.3c.5-.2 2.2-1.2 3-1.7.3-.2 0-.5 0-.5l-1.2-.9a.387.387 0 0 0-.5 0 25.287 25.287 0 0 1-6.4 1.7c-.8.1-.3.5-.3.5z"/><path data-name="Path 127" d="M13.4 22.202s-.6.9-.8 1.1a.778.778 0 0 1-.6.3l-3.1-.2a1.481 1.481 0 0 1-.9-.3c-.5-.2-2.2-1.2-3-1.7-.3-.2 0-.5 0-.5l1.2-.9a.387.387 0 0 1 .5 0 25.287 25.287 0 0 0 6.4 1.7c.8.1.3.5.3.5z"/></g><g data-name="Group 13" fill="#e1f5fe"><path data-name="Path 128" d="M18.6 22.702h2.6l2.5-1.5-.7-1.1a22.776 22.776 0 0 1-5.1 1.5z"/><path data-name="Path 129" d="M12.1 21.602a22.776 22.776 0 0 1-5.1-1.5l-.7 1.1 2.5 1.5h2.6z"/></g><path data-name="Path 130" d="M28.3 23.102h.8a.645.645 0 0 0 .6-.6l.3-8a.645.645 0 0 0-.6-.6h-.3z" fill="#851414"/><path data-name="Path 131" d="M.9 13.802H.6a.645.645 0 0 0-.6.6l.3 8a.645.645 0 0 0 .6.6h.8z" fill="#851414"/></g></svg>