<svg xmlns="http://www.w3.org/2000/svg" width="41.989" height="32" viewBox="0 0 41.989 32">
  <g id="novel" transform="translate(-3 -8)">
    <path id="Path_227" data-name="Path 227" d="M26,8a8.407,8.407,0,0,0-7,3.7A8.542,8.542,0,0,0,12,8a8.963,8.963,0,0,0-9,9c0,7,16,19.8,16,19.8S35,24,35,17A8.963,8.963,0,0,0,26,8Z" fill="#b71c1c"/>
    <path id="Path_228" data-name="Path 228" d="M39.3,18.2a7.423,7.423,0,0,0-6.4,1.6A7.292,7.292,0,0,0,28,15.5,7.38,7.38,0,0,0,19.1,21c-1.3,5.6,9.1,19,9.1,19s15.3-7.2,16.6-12.9A7.476,7.476,0,0,0,39.3,18.2Z" fill="#f44336"/>
  </g>
</svg>
