<svg xmlns="http://www.w3.org/2000/svg" width="40" height="38" viewBox="0 0 40 38">
  <g id="Family" transform="translate(-4 -5)">
    <rect id="Rectangle_1470" data-name="Rectangle 1470" width="10" height="11.2" transform="translate(29 12.9)" fill="#bf360c"/>
    <path id="Path_105" data-name="Path 105" d="M44,31V43H24V31c0-6.9,6.9-8.1,6.9-8.1h6.3C37.1,22.9,44,24.1,44,31Z" fill="#3f51b5"/>
    <path id="Path_106" data-name="Path 106" d="M34,26.3c-2.4,0-3-3.3-3-3.3V19.1h6V23S36.4,26.3,34,26.3Z" fill="#ff9800"/>
    <path id="Path_107" data-name="Path 107" d="M40,11.3c0-5.1-12-3.3-12,0V16a6,6,0,0,0,12,0Z" fill="#ffb74d"/>
    <path id="Path_108" data-name="Path 108" d="M34,5c-3.8,0-9,2.7-9,17l4,1.5V15l7-4,3,3v9.5L43,21c0-5.3-.2-15-6.6-15l-.6-1Z" fill="#ff5722"/>
    <path id="Path_109" data-name="Path 109" d="M34,27c-2.7,0-3-4-3-4s.9,3,3,3,3-3,3-3S36.7,27,34,27Z" fill="#ffb74d"/>
    <circle id="Ellipse_99" data-name="Ellipse 99" cx="0.6" cy="0.6" r="0.6" transform="translate(35.9 16)" fill="#784719"/>
    <circle id="Ellipse_100" data-name="Ellipse 100" cx="0.6" cy="0.6" r="0.6" transform="translate(30.9 15.9)" fill="#784719"/>
    <path id="Path_110" data-name="Path 110" d="M14,26.6c-3.2,0-3-3.6-3-3.6V19.4h6V23S17.2,26.6,14,26.6Z" fill="#ff9800"/>
    <g id="Group_6" data-name="Group 6">
      <circle id="Ellipse_101" data-name="Ellipse 101" cx="1.5" cy="1.5" r="1.5" transform="translate(18 14)" fill="#ffa726"/>
      <circle id="Ellipse_102" data-name="Ellipse 102" cx="1.5" cy="1.5" r="1.5" transform="translate(7 14)" fill="#ffa726"/>
    </g>
    <path id="Path_111" data-name="Path 111" d="M20,11.3C20,6.2,8,8,8,11.3V16a6,6,0,0,0,12,0Z" fill="#ffb74d"/>
    <path id="Path_112" data-name="Path 112" d="M14,5C9.7,5,7,8.4,7,12.7V15l1.4.5V12l8.4-2.8L19.6,12v3.5L21,15V12.7c0-2.8-.7-5.6-4.2-6.3L16.1,5Z" fill="#424242"/>
    <g id="Group_7" data-name="Group 7">
      <circle id="Ellipse_103" data-name="Ellipse 103" cx="0.6" cy="0.6" r="0.6" transform="translate(15.9 14.9)" fill="#784719"/>
      <circle id="Ellipse_104" data-name="Ellipse 104" cx="0.6" cy="0.6" r="0.6" transform="translate(10.9 14.9)" fill="#784719"/>
    </g>
    <g id="Group_8" data-name="Group 8">
      <path id="Path_113" data-name="Path 113" d="M17,22.9A2.822,2.822,0,0,1,14,25a2.822,2.822,0,0,1-3-2.1S4,24.1,4,31V43H24V31C24,24.1,17,22.9,17,22.9Z" fill="#009688"/>
    </g>
    <path id="Path_114" data-name="Path 114" d="M24,40a1.811,1.811,0,0,1-2-2V35.2h4V38A1.811,1.811,0,0,1,24,40Z" fill="#ff9800"/>
    <g id="Group_9" data-name="Group 9">
      <circle id="Ellipse_105" data-name="Ellipse 105" cx="1" cy="1" r="1" transform="translate(27 31.1)" fill="#ffa726"/>
      <circle id="Ellipse_106" data-name="Ellipse 106" cx="1" cy="1" r="1" transform="translate(19 31.1)" fill="#ffa726"/>
    </g>
    <path id="Path_115" data-name="Path 115" d="M28,30c0-3.4-8-2.2-8,0v3.1a4,4,0,0,0,8,0Z" fill="#ffb74d"/>
    <path id="Path_116" data-name="Path 116" d="M24,25.1c-3,0-5,2.5-5,5.5v1.6l1,.4V30.1l6-2,2,2v2.5l1-.4V30.6c0-2-.5-4-3-4.5l-.5-1Z" fill="#ff5722"/>
    <g id="Group_10" data-name="Group 10">
      <circle id="Ellipse_107" data-name="Ellipse 107" cx="0.5" cy="0.5" r="0.5" transform="translate(25 32)" fill="#784719"/>
      <circle id="Ellipse_108" data-name="Ellipse 108" cx="0.5" cy="0.5" r="0.5" transform="translate(22 32)" fill="#784719"/>
    </g>
    <g id="Group_11" data-name="Group 11">
      <path id="Path_117" data-name="Path 117" d="M26,37.3a2.026,2.026,0,0,1-4,0s-5,.9-5,5.7H31C31,38.2,26,37.3,26,37.3Z" fill="#00bcd4"/>
    </g>
  </g>
</svg>
