<svg xmlns="http://www.w3.org/2000/svg" width="20" height="20.001" viewBox="0 0 20 20.001">
  <g id="dark_mode" transform="translate(5.826 0.469)">
    <rect id="Rectangle_176" data-name="Rectangle 176" width="13.986" height="13.986" transform="translate(0)" fill="none"/>
    <g id="dark_mode_icon" transform="translate(-5.826 -0.469)" fill="#fff" stroke="#9244c8" stroke-width="1">
      <circle cx="10" cy="10" r="10" stroke="none"/>
      <circle cx="10" cy="10" r="9.5" fill="none"/>
    </g>
    <g id="Intersection_1" data-name="Intersection 1" transform="translate(-3.827 -903.469) rotate(180)">
      <path d="M -7.999199867248535 -903.4996948242188 C -13.23795986175537 -903.4996948242188 -17.5 -907.7617797851562 -17.5 -913.0005493164062 C -17.5 -914.8525390625 -16.96670913696289 -916.647216796875 -15.95777988433838 -918.1906127929688 C -14.97408962249756 -919.6953735351562 -13.5932092666626 -920.8869018554688 -11.96440982818604 -921.6362915039062 L -11.67339992523193 -921.7701416015625 L -11.67339992523193 -922.031494140625 L -11.03489971160889 -922.031494140625 L -10.95738983154297 -922.031494140625 L -10.88352012634277 -922.054931640625 C -9.953009605407715 -922.3505249023438 -8.982580184936523 -922.5004272460938 -7.999199867248535 -922.5004272460938 C -7.496949195861816 -922.5004272460938 -6.994448661804199 -922.4608764648438 -6.50029993057251 -922.382568359375 L -6.50029993057251 -903.617431640625 C -6.994105815887451 -903.5391845703125 -7.496578693389893 -903.4996948242188 -7.999199867248535 -903.4996948242188 Z" stroke="none"/>
      <path d="M -7.999198913574219 -922.0004272460938 C -8.931149482727051 -922.0004272460938 -9.850649833679199 -921.8584594726562 -10.73213958740234 -921.5784301757812 L -10.87987995147705 -921.531494140625 L -11.03489971160889 -921.531494140625 L -11.17339992523193 -921.531494140625 L -11.17339992523193 -921.4498291015625 L -11.7554292678833 -921.1820678710938 C -13.29866981506348 -920.4720458984375 -14.60709953308105 -919.343017578125 -15.5392599105835 -917.9170532226562 C -16.4948902130127 -916.4552001953125 -17 -914.7550659179688 -17 -913.0005493164062 C -17 -908.0374755859375 -12.96225929260254 -903.9996948242188 -7.999198913574219 -903.9996948242188 C -7.665197372436523 -903.9996948242188 -7.331310272216797 -904.01806640625 -7.000299453735352 -904.0546264648438 L -7.000299453735352 -921.9454345703125 C -7.331462860107422 -921.9819946289062 -7.665393829345703 -922.0004272460938 -7.999198913574219 -922.0004272460938 M -7.999198913574219 -923.0004272460938 C -7.314899444580078 -923.0004272460938 -6.646360397338867 -922.931396484375 -6.000299453735352 -922.80029296875 L -6.000299453735352 -903.19970703125 C -6.64617919921875 -903.068603515625 -7.314699172973633 -902.9996948242188 -7.999198913574219 -902.9996948242188 C -13.52250003814697 -902.9996948242188 -18 -907.4772338867188 -18 -913.0005493164062 C -18 -917.0325317382812 -15.61229991912842 -920.50830078125 -12.17339992523193 -922.0905151367188 L -12.17339992523193 -922.531494140625 L -11.03489971160889 -922.531494140625 C -10.07730007171631 -922.835693359375 -9.057600021362305 -923.0004272460938 -7.999198913574219 -923.0004272460938 Z" stroke="none" fill="#9244c8"/>
    </g>
  </g>
</svg>
