<svg xmlns="http://www.w3.org/2000/svg" width="20" height="20.001"><path data-name="Rectangle 176" fill="none" d="M5.826.469h13.986v13.986H5.826z"/><g fill="#fff" stroke="#9244c8"><circle cx="10" cy="10" r="10" stroke="none"/><circle cx="10" cy="10" r="9.5" fill="none"/></g><g data-name="Intersection 1"><path d="M9.998.5C15.237.5 19.5 4.762 19.5 10a9.46 9.46 0 0 1-1.542 5.19 9.522 9.522 0 0 1-3.994 3.446l-.29.134v.261h-.717l-.073.024a9.514 9.514 0 0 1-4.384.328V.617A9.59 9.59 0 0 1 10 .5z"/><path d="M9.998 19c.932 0 1.852-.142 2.733-.422l.148-.047h.293v-.081l.582-.268a9.022 9.022 0 0 0 3.784-3.265A8.961 8.961 0 0 0 19 10.001C19 5.037 14.962 1 10 1c-.335 0-.669.018-1 .055v17.89c.331.037.665.055 1 .055m0 1c-.685 0-1.354-.069-2-.2V.2a10.04 10.04 0 0 1 2-.2c5.523 0 10 4.477 10 10 0 4.033-2.388 7.508-5.827 9.09v.441h-1.138a10.01 10.01 0 0 1-3.036.47z" fill="#9244c8"/></g></svg>